M48
INCH,TZ
T1C0.025
T2C0.032
T3C0.032
T4C0.040
T5C0.043
T6C0.051
T7C0.063
T8C0.120
%
G90
G05
T1
X8957Y-21063
X9942Y-20275
X9942Y-23425
X10434Y-35433
X11713Y-21358
X12008Y-20472
X16930Y-29035
X18012Y-24507
X18603Y-29921
X18997Y-24704
X19882Y-20767
X19981Y-24901
X20375Y-30905
X22540Y-21653
X23327Y-22342
X25197Y-24901
X26477Y-22244
T2
X10434Y-21744
X10434Y-22744
X38084Y-8267
X38084Y-16535
X38084Y-24803
X38478Y-33070
X39084Y-8267
X39084Y-16535
X39084Y-24803
X39478Y-33070
T3
X5461Y-16488
X5461Y-19465
X5461Y-25346
X5461Y-28393
X6461Y-16488
X6461Y-19465
X6461Y-25346
X6461Y-28393
X7461Y-16488
X7461Y-19465
X7461Y-25346
X7461Y-28393
X8461Y-16488
X8461Y-19465
X8461Y-25346
X8461Y-28393
X9461Y-16488
X9461Y-19465
X9461Y-25346
X9461Y-28393
X10461Y-16488
X10461Y-19465
X10461Y-25346
X10461Y-28393
X11461Y-16488
X11461Y-19465
X11461Y-25346
X11461Y-28393
X12461Y-16488
X12461Y-19465
X12461Y-25346
X12461Y-28393
X13461Y-16488
X13461Y-19465
X13461Y-25346
X13461Y-28393
X14461Y-16488
X14461Y-19465
X14461Y-25346
X14461Y-28393
X15461Y-16488
X15461Y-19465
X15461Y-25346
X15461Y-28393
X16461Y-16488
X16461Y-19465
X16461Y-25346
X16461Y-28393
X17461Y-16488
X17461Y-19465
X17461Y-25346
X17461Y-28393
X18461Y-16488
X18461Y-19465
X18461Y-25346
X18461Y-28393
X19461Y-16488
X19461Y-19465
X19461Y-25346
X19461Y-28393
X20461Y-16488
X20461Y-19465
X20461Y-25346
X20461Y-28393
X21461Y-16488
X21461Y-19465
X21461Y-25346
X21461Y-28393
X22461Y-16488
X22461Y-19465
X22461Y-25346
X22461Y-28393
X23461Y-16488
X23461Y-19465
X23461Y-25346
X23461Y-28393
X24461Y-16488
X24461Y-19465
X24461Y-25346
X24461Y-28393
X35691Y-8311
X35691Y-9311
X35691Y-10311
X35691Y-11311
X35691Y-12311
X35691Y-13311
X35691Y-14311
X35691Y-15311
X35691Y-16578
X35691Y-17578
X35691Y-18578
X35691Y-19578
X35691Y-20578
X35691Y-21578
X35691Y-22578
X35691Y-23578
X35691Y-24846
X35691Y-25846
X35691Y-26846
X35691Y-27846
X35691Y-28846
X35691Y-29846
X35691Y-30846
X35691Y-31846
X35691Y-33114
X35691Y-34114
X35691Y-35114
X35691Y-36114
X35691Y-37114
X35691Y-38114
X35691Y-39114
X35691Y-40114
X40691Y-8311
X40691Y-9311
X40691Y-10311
X40691Y-11311
X40691Y-12311
X40691Y-13311
X40691Y-14311
X40691Y-15311
X40691Y-16578
X40691Y-17578
X40691Y-18578
X40691Y-19578
X40691Y-20578
X40691Y-21578
X40691Y-22578
X40691Y-23578
X40691Y-24846
X40691Y-25846
X40691Y-26846
X40691Y-27846
X40691Y-28846
X40691Y-29846
X40691Y-30846
X40691Y-31846
X40691Y-33114
X40691Y-34114
X40691Y-35114
X40691Y-36114
X40691Y-37114
X40691Y-38114
X40691Y-39114
X40691Y-40114
X41733Y-10389
X41733Y-11389
X41733Y-12389
X41733Y-13389
X41733Y-18657
X41733Y-19657
X41733Y-20657
X41733Y-21657
X41733Y-26925
X41733Y-27925
X41733Y-28925
X41733Y-29925
X41733Y-35114
X41733Y-36114
X41733Y-37114
X41733Y-38114
T4
X5709Y-35826
X5709Y-37204
X5709Y-38582
X8268Y-11295
X8268Y-12295
X8268Y-13295
X8268Y-14295
X8646Y-42519
X9237Y-8662
X9646Y-42519
X9737Y-7283
X10237Y-8662
X10646Y-42519
X10737Y-7283
X11237Y-8662
X12583Y-42519
X13083Y-39172
X13371Y-8662
X13583Y-42519
X13871Y-7283
X13977Y-21441
X13977Y-22441
X13977Y-23441
X14083Y-39172
X14371Y-8662
X14583Y-42519
X14871Y-7283
X15371Y-8662
X16520Y-42519
X17020Y-39172
X17520Y-42519
X18020Y-39172
X18520Y-42519
X18973Y-7283
X19473Y-8662
X19973Y-7283
X20457Y-42519
X20473Y-8662
X20958Y-39172
X20973Y-7283
X21457Y-42519
X21473Y-8662
X21958Y-39172
X21973Y-7283
X22457Y-42519
X25985Y-19874
X25985Y-20874
X27044Y-7283
X27544Y-8662
X28044Y-7283
X28544Y-8662
X29044Y-7283
X29544Y-8662
X30044Y-7283
X32087Y-7555
X32087Y-8555
X32087Y-9555
X32087Y-10555
X36813Y-9342
X36813Y-10342
X36813Y-11311
X36813Y-12311
X36813Y-13279
X36813Y-14279
X36813Y-17610
X36813Y-18610
X36813Y-19578
X36813Y-20578
X36813Y-21547
X36813Y-22547
X36813Y-25878
X36813Y-26878
X36813Y-27846
X36813Y-28846
X36813Y-29815
X36813Y-30815
X36813Y-34145
X36813Y-35145
X36813Y-36114
X36813Y-37114
X36813Y-38082
X36813Y-39082
T5
X24016Y-33287
T6
X5906Y-8857
X5906Y-10826
X5906Y-12794
X5906Y-14763
X9253Y-5905
X11222Y-5905
X13387Y-5905
X15356Y-5905
X17521Y-5905
X19490Y-5905
X21458Y-5905
X23427Y-5905
X25591Y-5905
X27560Y-5905
X29528Y-5905
X31497Y-5905
X34056Y-5905
X36025Y-5905
X37993Y-5905
X39962Y-5905
X42914Y-8858
X42914Y-10827
X42914Y-12795
X42914Y-14764
X42914Y-17126
X42914Y-19095
X42914Y-21063
X42914Y-23032
X42914Y-25393
X42914Y-27362
X42914Y-29330
X42914Y-31299
X42914Y-33661
X42914Y-35630
X42914Y-37598
X42914Y-39567
T7
X32284Y-33287
T8
X6694Y-6693
X6694Y-42126
X41537Y-42126
X42127Y-6693
T0
M30
