G04 (created by PCBNEW-RS274X (2012-01-19 BZR 3256)-stable) date 27/06/2012 6:41:12 PM*
G01*
G70*
G90*
%MOIN*%
G04 Gerber Fmt 3.4, Leading zero omitted, Abs format*
%FSLAX34Y34*%
G04 APERTURE LIST*
%ADD10C,0.006000*%
%ADD11C,0.015000*%
%ADD12R,0.098400X0.098400*%
%ADD13C,0.098400*%
%ADD14R,0.055000X0.035000*%
%ADD15C,0.070000*%
%ADD16R,0.070000X0.070000*%
%ADD17R,0.055000X0.055000*%
%ADD18C,0.055000*%
%ADD19R,0.060000X0.060000*%
%ADD20C,0.060000*%
%ADD21R,0.080000X0.060000*%
%ADD22R,0.060000X0.080000*%
%ADD23R,0.035000X0.055000*%
%ADD24C,0.059100*%
%ADD25C,0.160000*%
%ADD26R,0.070900X0.118100*%
%ADD27R,0.059100X0.110200*%
%ADD28R,0.027600X0.086600*%
%ADD29R,0.043300X0.086600*%
%ADD30C,0.047200*%
%ADD31C,0.066900*%
%ADD32R,0.043300X0.087000*%
%ADD33C,0.035000*%
%ADD34C,0.039400*%
%ADD35C,0.009800*%
%ADD36C,0.059100*%
%ADD37C,0.015700*%
G04 APERTURE END LIST*
G54D10*
G54D11*
X39284Y-25803D02*
X39284Y-25303D01*
X39534Y-25553D02*
X39084Y-25553D01*
X39284Y-17535D02*
X39284Y-17035D01*
X39534Y-17285D02*
X39084Y-17285D01*
X39678Y-34070D02*
X39678Y-33570D01*
X39928Y-33820D02*
X39478Y-33820D01*
X39284Y-09267D02*
X39284Y-08767D01*
X39534Y-09017D02*
X39084Y-09017D01*
X11434Y-22134D02*
X10934Y-22134D01*
X11184Y-21884D02*
X11184Y-22334D01*
G54D12*
X42914Y-25393D03*
G54D13*
X42914Y-27362D03*
X42914Y-29330D03*
X42914Y-31299D03*
G54D12*
X42914Y-33661D03*
G54D13*
X42914Y-35630D03*
X42914Y-37598D03*
X42914Y-39567D03*
G54D12*
X42914Y-17126D03*
G54D13*
X42914Y-19095D03*
X42914Y-21063D03*
X42914Y-23032D03*
G54D12*
X42914Y-08858D03*
G54D13*
X42914Y-10827D03*
X42914Y-12795D03*
X42914Y-14764D03*
G54D12*
X05906Y-14763D03*
G54D13*
X05906Y-12794D03*
X05906Y-10826D03*
X05906Y-08857D03*
G54D12*
X34056Y-05905D03*
G54D13*
X36025Y-05905D03*
X37993Y-05905D03*
X39962Y-05905D03*
G54D12*
X25591Y-05905D03*
G54D13*
X27560Y-05905D03*
X29528Y-05905D03*
X31497Y-05905D03*
G54D12*
X17521Y-05905D03*
G54D13*
X19490Y-05905D03*
X21458Y-05905D03*
X23427Y-05905D03*
G54D12*
X13387Y-05905D03*
G54D13*
X15356Y-05905D03*
G54D12*
X09253Y-05905D03*
G54D13*
X11222Y-05905D03*
G54D14*
X32087Y-12776D03*
X32087Y-12026D03*
X12008Y-14548D03*
X12008Y-13798D03*
X17048Y-33367D03*
X17048Y-32617D03*
X18032Y-33367D03*
X18032Y-32617D03*
X27363Y-27146D03*
X27363Y-26396D03*
X28347Y-27146D03*
X28347Y-26396D03*
X28938Y-11793D03*
X28938Y-11043D03*
X20867Y-11793D03*
X20867Y-11043D03*
X14765Y-11793D03*
X14765Y-11043D03*
G54D15*
X21473Y-08662D03*
X20473Y-08662D03*
G54D16*
X19473Y-08662D03*
G54D15*
X15371Y-08662D03*
X14371Y-08662D03*
G54D16*
X13371Y-08662D03*
G54D15*
X11237Y-08662D03*
X10237Y-08662D03*
G54D16*
X09237Y-08662D03*
G54D15*
X29544Y-08662D03*
X28544Y-08662D03*
G54D16*
X27544Y-08662D03*
G54D15*
X13978Y-22425D03*
X13978Y-23425D03*
G54D16*
X13978Y-24425D03*
G54D17*
X05461Y-19535D03*
G54D18*
X06461Y-19535D03*
X07461Y-19535D03*
X08461Y-19535D03*
X09461Y-19535D03*
X10461Y-19535D03*
X11461Y-19535D03*
X12461Y-19535D03*
X13461Y-19535D03*
X14461Y-19535D03*
X15461Y-19535D03*
X16461Y-19535D03*
X17461Y-19535D03*
X18461Y-19535D03*
X19461Y-19535D03*
X20461Y-19535D03*
X21461Y-19535D03*
X22461Y-19535D03*
X23461Y-19535D03*
X24461Y-19535D03*
X24461Y-16488D03*
X23461Y-16488D03*
X22461Y-16488D03*
X21461Y-16488D03*
X20461Y-16488D03*
X19461Y-16488D03*
X18461Y-16488D03*
X17461Y-16488D03*
X16461Y-16488D03*
X15461Y-16488D03*
X14461Y-16488D03*
X13461Y-16488D03*
X12461Y-16488D03*
X11461Y-16488D03*
X10461Y-16488D03*
X09461Y-16488D03*
X08461Y-16488D03*
X07461Y-16488D03*
X06461Y-16488D03*
G54D17*
X05461Y-16488D03*
X24461Y-27315D03*
G54D18*
X23461Y-27315D03*
X22461Y-27315D03*
X21461Y-27315D03*
X20461Y-27315D03*
X19461Y-27315D03*
X18461Y-27315D03*
X17461Y-27315D03*
X16461Y-27315D03*
X15461Y-27315D03*
X14461Y-27315D03*
X13461Y-27315D03*
X12461Y-27315D03*
X11461Y-27315D03*
X10461Y-27315D03*
X09461Y-27315D03*
X08461Y-27315D03*
X07461Y-27315D03*
X06461Y-27315D03*
X05461Y-27315D03*
X05461Y-30292D03*
X06461Y-30292D03*
X07461Y-30292D03*
X08461Y-30292D03*
X09461Y-30292D03*
X10461Y-30292D03*
X11461Y-30292D03*
X12461Y-30292D03*
X13461Y-30292D03*
X14461Y-30292D03*
X15461Y-30292D03*
X16461Y-30292D03*
X17461Y-30292D03*
X18461Y-30292D03*
X19461Y-30292D03*
X20461Y-30292D03*
X21461Y-30292D03*
X22461Y-30292D03*
X23461Y-30292D03*
G54D17*
X24461Y-30292D03*
G54D19*
X40691Y-15311D03*
G54D20*
X40691Y-14311D03*
X40691Y-13311D03*
X40691Y-12311D03*
X40691Y-11311D03*
X40691Y-10311D03*
G54D19*
X40691Y-09311D03*
G54D20*
X40691Y-08311D03*
X35691Y-08311D03*
X35691Y-09311D03*
X35691Y-10311D03*
X35691Y-11311D03*
X35691Y-12311D03*
X35691Y-13311D03*
X35691Y-14311D03*
X35691Y-15311D03*
G54D19*
X40691Y-31846D03*
G54D20*
X40691Y-30846D03*
X40691Y-29846D03*
X40691Y-28846D03*
X40691Y-27846D03*
X40691Y-26846D03*
G54D19*
X40691Y-25846D03*
G54D20*
X40691Y-24846D03*
X35691Y-24846D03*
X35691Y-25846D03*
X35691Y-26846D03*
X35691Y-27846D03*
X35691Y-28846D03*
X35691Y-29846D03*
X35691Y-30846D03*
X35691Y-31846D03*
G54D19*
X40691Y-23578D03*
G54D20*
X40691Y-22578D03*
X40691Y-21578D03*
X40691Y-20578D03*
X40691Y-19578D03*
X40691Y-18578D03*
G54D19*
X40691Y-17578D03*
G54D20*
X40691Y-16578D03*
X35691Y-16578D03*
X35691Y-17578D03*
X35691Y-18578D03*
X35691Y-19578D03*
X35691Y-20578D03*
X35691Y-21578D03*
X35691Y-22578D03*
X35691Y-23578D03*
G54D19*
X40691Y-40114D03*
G54D20*
X40691Y-39114D03*
X40691Y-38114D03*
X40691Y-37114D03*
X40691Y-36114D03*
X40691Y-35114D03*
G54D19*
X40691Y-34114D03*
G54D20*
X40691Y-33114D03*
X35691Y-33114D03*
X35691Y-34114D03*
X35691Y-35114D03*
X35691Y-36114D03*
X35691Y-37114D03*
X35691Y-38114D03*
X35691Y-39114D03*
X35691Y-40114D03*
G54D21*
X25985Y-23681D03*
X25985Y-22381D03*
G54D22*
X12933Y-37204D03*
X14233Y-37204D03*
X16870Y-37204D03*
X18170Y-37204D03*
X20808Y-37204D03*
X22108Y-37204D03*
X12462Y-24606D03*
X11162Y-24606D03*
G54D23*
X13958Y-35629D03*
X13208Y-35629D03*
G54D14*
X12600Y-22459D03*
X12600Y-23209D03*
G54D23*
X17895Y-35629D03*
X17145Y-35629D03*
X21833Y-35629D03*
X21083Y-35629D03*
X38603Y-34252D03*
X39353Y-34252D03*
X38209Y-17716D03*
X38959Y-17716D03*
X38209Y-25984D03*
X38959Y-25984D03*
X38209Y-09448D03*
X38959Y-09448D03*
G54D19*
X32087Y-07555D03*
G54D20*
X32087Y-08555D03*
X32087Y-09555D03*
X32087Y-10555D03*
G54D19*
X08268Y-14295D03*
G54D20*
X08268Y-13295D03*
X08268Y-12295D03*
X08268Y-11295D03*
G54D19*
X18973Y-07283D03*
G54D20*
X19973Y-07283D03*
X20973Y-07283D03*
X21973Y-07283D03*
G54D19*
X27044Y-07283D03*
G54D20*
X28044Y-07283D03*
X29044Y-07283D03*
X30044Y-07283D03*
G54D19*
X12583Y-42519D03*
G54D20*
X13583Y-42519D03*
X14583Y-42519D03*
G54D19*
X16520Y-42519D03*
G54D20*
X17520Y-42519D03*
X18520Y-42519D03*
G54D19*
X08646Y-42519D03*
G54D20*
X09646Y-42519D03*
X10646Y-42519D03*
G54D19*
X20457Y-42519D03*
G54D20*
X21457Y-42519D03*
X22457Y-42519D03*
G54D19*
X25985Y-26090D03*
G54D20*
X25985Y-25090D03*
G54D19*
X36813Y-27846D03*
G54D20*
X36813Y-28846D03*
G54D19*
X20958Y-39172D03*
G54D20*
X21958Y-39172D03*
G54D19*
X17020Y-39172D03*
G54D20*
X18020Y-39172D03*
G54D19*
X13083Y-39172D03*
G54D20*
X14083Y-39172D03*
G54D19*
X36813Y-13279D03*
G54D20*
X36813Y-14279D03*
G54D19*
X36813Y-29815D03*
G54D20*
X36813Y-30815D03*
G54D19*
X36813Y-11311D03*
G54D20*
X36813Y-12311D03*
G54D19*
X36813Y-09342D03*
G54D20*
X36813Y-10342D03*
G54D19*
X13871Y-07283D03*
G54D20*
X14871Y-07283D03*
G54D19*
X09737Y-07283D03*
G54D20*
X10737Y-07283D03*
G54D19*
X36813Y-34145D03*
G54D20*
X36813Y-35145D03*
G54D19*
X36813Y-17610D03*
G54D20*
X36813Y-18610D03*
G54D19*
X36813Y-36114D03*
G54D20*
X36813Y-37114D03*
G54D19*
X36813Y-19578D03*
G54D20*
X36813Y-20578D03*
G54D19*
X36813Y-38082D03*
G54D20*
X36813Y-39082D03*
G54D19*
X36813Y-21547D03*
G54D20*
X36813Y-22547D03*
G54D19*
X36813Y-25878D03*
G54D20*
X36813Y-26878D03*
G54D19*
X05709Y-37204D03*
X05709Y-38582D03*
X05709Y-35826D03*
G54D24*
X38084Y-24803D03*
X39084Y-24803D03*
X38084Y-16535D03*
X39084Y-16535D03*
X38478Y-33070D03*
X39478Y-33070D03*
X38084Y-08267D03*
X39084Y-08267D03*
X10434Y-23334D03*
X10434Y-22334D03*
G54D25*
X06694Y-06693D03*
X42127Y-06693D03*
X06694Y-42126D03*
X41537Y-42126D03*
G54D14*
X10631Y-11793D03*
X10631Y-11043D03*
G54D21*
X09646Y-12068D03*
X09646Y-10768D03*
X13781Y-12067D03*
X13781Y-10767D03*
X19883Y-12068D03*
X19883Y-10768D03*
X27954Y-12068D03*
X27954Y-10768D03*
X30906Y-13051D03*
X30906Y-11751D03*
X10906Y-14874D03*
X10906Y-13574D03*
G54D26*
X34262Y-43204D03*
X23514Y-43214D03*
G54D27*
X23318Y-32903D03*
G54D28*
X23840Y-32086D03*
X24312Y-32086D03*
G54D29*
X24824Y-32086D03*
X25493Y-32086D03*
X28346Y-32086D03*
X27362Y-32086D03*
X26378Y-32086D03*
X29331Y-32086D03*
X30315Y-32086D03*
X31299Y-32086D03*
G54D30*
X24016Y-33287D03*
G54D31*
X32284Y-33287D03*
G54D32*
X32284Y-32086D03*
G54D26*
X33200Y-32893D03*
G54D33*
X15512Y-14724D03*
X15906Y-14330D03*
X25119Y-22362D03*
X28741Y-33070D03*
X22205Y-23385D03*
X23859Y-23937D03*
X22756Y-38504D03*
X28741Y-40078D03*
X27875Y-40078D03*
X21024Y-34803D03*
X30001Y-24724D03*
X23150Y-36693D03*
X19922Y-33543D03*
X27953Y-39133D03*
X28741Y-39133D03*
X21024Y-40078D03*
X21182Y-36378D03*
X29607Y-23858D03*
X29607Y-22913D03*
X29528Y-22362D03*
X21103Y-34252D03*
X17166Y-40708D03*
X26457Y-21023D03*
X15906Y-15118D03*
X27402Y-21417D03*
G54D34*
X17461Y-16488D02*
X17461Y-19535D01*
X16461Y-19535D02*
X16461Y-16488D01*
G54D35*
X28663Y-12068D02*
X28938Y-11793D01*
X11034Y-13574D02*
X12008Y-14548D01*
X27954Y-12068D02*
X28663Y-12068D01*
X10906Y-13574D02*
X11034Y-13574D01*
G54D34*
X11461Y-27315D02*
X11461Y-30292D01*
G54D35*
X31812Y-13051D02*
X32087Y-12776D01*
G54D34*
X06461Y-30292D02*
X06461Y-27315D01*
G54D35*
X14491Y-12067D02*
X14765Y-11793D01*
X10356Y-12068D02*
X10631Y-11793D01*
G54D34*
X05461Y-27315D02*
X05461Y-30292D01*
G54D35*
X20592Y-12068D02*
X20867Y-11793D01*
X27363Y-27146D02*
X28347Y-27146D01*
X19883Y-12068D02*
X20592Y-12068D01*
X17048Y-32617D02*
X18032Y-32617D01*
X13781Y-12067D02*
X14491Y-12067D01*
G54D34*
X07461Y-27315D02*
X07461Y-30292D01*
G54D35*
X30906Y-13051D02*
X31812Y-13051D01*
X09646Y-12068D02*
X10356Y-12068D01*
G54D36*
X28044Y-06389D02*
X27560Y-05905D01*
X34056Y-05905D02*
X32406Y-07555D01*
X26457Y-04960D02*
X28584Y-04960D01*
X36025Y-05905D02*
X34056Y-05905D01*
X34016Y-05905D02*
X33071Y-04960D01*
X33071Y-04960D02*
X35080Y-04960D01*
G54D35*
X32087Y-08555D02*
X31130Y-08555D01*
X30906Y-08779D02*
X30906Y-11751D01*
G54D36*
X32087Y-08555D02*
X32087Y-07874D01*
X27639Y-05905D02*
X28584Y-04960D01*
X28044Y-07283D02*
X27044Y-07283D01*
X32087Y-08555D02*
X33375Y-08555D01*
X27044Y-07283D02*
X26969Y-07283D01*
G54D35*
X28044Y-07283D02*
X28044Y-10678D01*
G54D36*
X34056Y-05905D02*
X34016Y-05905D01*
X35080Y-04960D02*
X36025Y-05905D01*
X28044Y-07283D02*
X28044Y-06389D01*
X25591Y-05905D02*
X25591Y-05826D01*
X25591Y-05826D02*
X26457Y-04960D01*
X27560Y-05905D02*
X25591Y-05905D01*
X26969Y-07283D02*
X25591Y-05905D01*
G54D35*
X31130Y-08555D02*
X30906Y-08779D01*
X28044Y-10678D02*
X27954Y-10768D01*
G54D36*
X33375Y-08555D02*
X36025Y-05905D01*
X27560Y-05905D02*
X27639Y-05905D01*
X32406Y-07555D02*
X32087Y-07555D01*
X32087Y-07874D02*
X34056Y-05905D01*
X28584Y-04960D02*
X33071Y-04960D01*
X19490Y-05905D02*
X17521Y-05905D01*
X05906Y-12519D02*
X04961Y-11574D01*
X09737Y-06389D02*
X09253Y-05905D01*
X40691Y-08311D02*
X39128Y-08311D01*
X06407Y-13295D02*
X05906Y-12794D01*
X14331Y-04960D02*
X16576Y-04960D01*
X06374Y-14295D02*
X05906Y-14763D01*
X13871Y-06389D02*
X13387Y-05905D01*
X08308Y-04960D02*
X09253Y-05905D01*
X04961Y-06220D02*
X06221Y-04960D01*
X05906Y-12794D02*
X05906Y-12519D01*
X08308Y-04960D02*
X10080Y-04960D01*
X08268Y-13295D02*
X06407Y-13295D01*
X05906Y-14763D02*
X05906Y-12794D01*
X06221Y-04960D02*
X08308Y-04960D01*
G54D35*
X08268Y-14295D02*
X08268Y-15905D01*
X13978Y-22425D02*
X12634Y-22425D01*
G54D36*
X17595Y-05905D02*
X18973Y-07283D01*
G54D35*
X10327Y-14295D02*
X10906Y-14874D01*
G54D36*
X13387Y-05905D02*
X13387Y-05904D01*
X17521Y-05905D02*
X17595Y-05905D01*
X16576Y-04960D02*
X16596Y-04980D01*
G54D35*
X19973Y-10678D02*
X19883Y-10768D01*
G54D36*
X09253Y-05905D02*
X09253Y-05787D01*
X19973Y-07283D02*
X19973Y-06388D01*
X39128Y-08311D02*
X39084Y-08267D01*
X13387Y-05904D02*
X14331Y-04960D01*
G54D35*
X19973Y-07283D02*
X19973Y-10678D01*
G54D36*
X16596Y-04980D02*
X17521Y-05905D01*
X04961Y-11574D02*
X04961Y-06220D01*
X08268Y-14295D02*
X06374Y-14295D01*
X13871Y-07283D02*
X13871Y-06389D01*
X09253Y-05787D02*
X10080Y-04960D01*
X19973Y-07283D02*
X18973Y-07283D01*
X09737Y-07283D02*
X09737Y-06389D01*
X40691Y-24846D02*
X39127Y-24846D01*
G54D35*
X09737Y-07283D02*
X09737Y-10677D01*
G54D36*
X10080Y-04960D02*
X12442Y-04960D01*
X40691Y-16578D02*
X39127Y-16578D01*
G54D35*
X13871Y-07283D02*
X13871Y-10677D01*
G54D36*
X12442Y-04960D02*
X13387Y-05905D01*
X08268Y-14295D02*
X08268Y-13295D01*
X40691Y-33114D02*
X39522Y-33114D01*
X39522Y-33114D02*
X39478Y-33070D01*
X12442Y-04960D02*
X14331Y-04960D01*
X39127Y-16578D02*
X39084Y-16535D01*
G54D35*
X13871Y-10677D02*
X13781Y-10767D01*
X10434Y-22334D02*
X12475Y-22334D01*
X08268Y-14295D02*
X10327Y-14295D01*
X12634Y-22425D02*
X12600Y-22459D01*
X12475Y-22334D02*
X12600Y-22459D01*
X09737Y-10677D02*
X09646Y-10768D01*
X07953Y-19853D02*
X10434Y-22334D01*
X07953Y-16220D02*
X07953Y-19853D01*
X08268Y-15905D02*
X07953Y-16220D01*
G54D36*
X39127Y-24846D02*
X39084Y-24803D01*
X19973Y-06388D02*
X19490Y-05905D01*
X16596Y-04980D02*
X18565Y-04980D01*
X18565Y-04980D02*
X19490Y-05905D01*
G54D35*
X40691Y-14220D02*
X36813Y-10342D01*
X26930Y-41653D02*
X38190Y-41653D01*
X38583Y-15827D02*
X40099Y-14311D01*
X38583Y-16771D02*
X38583Y-15827D01*
X39134Y-17086D02*
X38898Y-17086D01*
X40691Y-22578D02*
X40691Y-22501D01*
X40099Y-14311D02*
X40691Y-14311D01*
X38813Y-14311D02*
X36813Y-12311D01*
X40691Y-14311D02*
X36845Y-14311D01*
X40691Y-14311D02*
X38813Y-14311D01*
X36845Y-14311D02*
X36813Y-14279D01*
X40691Y-22501D02*
X39371Y-21181D01*
X28346Y-32086D02*
X28346Y-40236D01*
X40493Y-22578D02*
X40691Y-22578D01*
X39371Y-17323D02*
X39134Y-17086D01*
X40691Y-22578D02*
X40691Y-22488D01*
X40691Y-22488D02*
X36813Y-18610D01*
X40691Y-22578D02*
X38813Y-22578D01*
X38813Y-22578D02*
X36813Y-20578D01*
X40691Y-22578D02*
X36844Y-22578D01*
X36844Y-22578D02*
X36813Y-22547D01*
X40691Y-30846D02*
X40691Y-30769D01*
X39371Y-21181D02*
X39371Y-17323D01*
X17560Y-36377D02*
X17560Y-42479D01*
X38898Y-25354D02*
X38583Y-25039D01*
X38583Y-25039D02*
X38583Y-24488D01*
X38583Y-24488D02*
X40493Y-22578D01*
X40691Y-30846D02*
X36844Y-30846D01*
X39134Y-25354D02*
X38898Y-25354D01*
X39371Y-25591D02*
X39134Y-25354D01*
X40691Y-30756D02*
X36813Y-26878D01*
X40691Y-30846D02*
X40691Y-30756D01*
X40691Y-30769D02*
X39371Y-29449D01*
X39371Y-29449D02*
X39371Y-25591D01*
X40691Y-30846D02*
X38813Y-30846D01*
X38813Y-30846D02*
X36813Y-28846D01*
X40691Y-14311D02*
X40691Y-14220D01*
X36844Y-30846D02*
X36813Y-30815D01*
X40691Y-39114D02*
X40691Y-39037D01*
X38977Y-32560D02*
X40691Y-30846D01*
X38977Y-33385D02*
X38977Y-32560D01*
X39214Y-33622D02*
X38977Y-33385D01*
X39528Y-33622D02*
X39214Y-33622D01*
X39764Y-33858D02*
X39528Y-33622D01*
X39764Y-38110D02*
X39764Y-33858D01*
X40691Y-39037D02*
X39764Y-38110D01*
X38813Y-39114D02*
X36813Y-37114D01*
X40691Y-39114D02*
X36845Y-39114D01*
X38190Y-41653D02*
X38347Y-41496D01*
X21457Y-42519D02*
X21497Y-42519D01*
X22363Y-41653D02*
X26930Y-41653D01*
X21497Y-42519D02*
X22363Y-41653D01*
X40691Y-39114D02*
X40691Y-39023D01*
X40691Y-39023D02*
X36813Y-35145D01*
X40691Y-39114D02*
X38813Y-39114D01*
X36845Y-39114D02*
X36813Y-39082D01*
X38347Y-41458D02*
X40691Y-39114D01*
X17895Y-36042D02*
X17560Y-36377D01*
X38898Y-17086D02*
X38583Y-16771D01*
X13958Y-35629D02*
X14786Y-35629D01*
X13958Y-35629D02*
X13958Y-36200D01*
X28346Y-40237D02*
X26930Y-41653D01*
X28346Y-40236D02*
X28346Y-40237D01*
X21833Y-36120D02*
X21497Y-36456D01*
X17895Y-35629D02*
X17895Y-36042D01*
X21497Y-42479D02*
X21457Y-42519D01*
X21833Y-35629D02*
X21833Y-36120D01*
X21497Y-36456D02*
X21497Y-42479D01*
X14786Y-35629D02*
X17048Y-33367D01*
X17560Y-42479D02*
X17520Y-42519D01*
X38347Y-41496D02*
X38347Y-41458D01*
G54D34*
X05461Y-19535D02*
X05461Y-16488D01*
G54D35*
X13623Y-42479D02*
X13583Y-42519D01*
X13623Y-36535D02*
X13623Y-42479D01*
X13958Y-36200D02*
X13623Y-36535D01*
X17520Y-42519D02*
X17638Y-42519D01*
X20433Y-43543D02*
X21457Y-42519D01*
X18662Y-43543D02*
X20433Y-43543D01*
X17638Y-42519D02*
X18662Y-43543D01*
X13583Y-42519D02*
X13583Y-42716D01*
X16496Y-43543D02*
X17520Y-42519D01*
X13583Y-42716D02*
X14410Y-43543D01*
X09646Y-42519D02*
X09685Y-42519D01*
X04961Y-42283D02*
X06378Y-43700D01*
X04961Y-26929D02*
X04961Y-42283D01*
X05461Y-26429D02*
X04961Y-26929D01*
X14410Y-43543D02*
X16496Y-43543D01*
X06378Y-43700D02*
X08465Y-43700D01*
X08465Y-43700D02*
X09646Y-42519D01*
X05461Y-19535D02*
X05461Y-26429D01*
X09685Y-42519D02*
X10788Y-43622D01*
X10788Y-43622D02*
X12480Y-43622D01*
X12480Y-43622D02*
X13583Y-42519D01*
X25985Y-26090D02*
X27057Y-26090D01*
X27057Y-26090D02*
X27363Y-26396D01*
G54D34*
X24461Y-27315D02*
X24461Y-30292D01*
G54D35*
X20461Y-30292D02*
X20461Y-35007D01*
X20461Y-35007D02*
X21083Y-35629D01*
G54D34*
X20461Y-30292D02*
X20461Y-27315D01*
G54D37*
X20808Y-37204D02*
X20808Y-35904D01*
X20808Y-35904D02*
X21083Y-35629D01*
X20958Y-39172D02*
X20958Y-37354D01*
X20958Y-37354D02*
X20808Y-37204D01*
G54D35*
X15512Y-14724D02*
X24253Y-14724D01*
G54D34*
X09461Y-19535D02*
X09461Y-16488D01*
G54D35*
X24253Y-14724D02*
X34253Y-14724D01*
X35312Y-15311D02*
X35691Y-15311D01*
X34253Y-14724D02*
X34725Y-14724D01*
X34725Y-14724D02*
X35312Y-15311D01*
X32048Y-13936D02*
X31890Y-14094D01*
G54D34*
X16461Y-30292D02*
X16461Y-27315D01*
G54D35*
X31890Y-14094D02*
X28111Y-14094D01*
X32993Y-09999D02*
X32993Y-12991D01*
X15671Y-13936D02*
X13938Y-15669D01*
X32993Y-12991D02*
X32048Y-13936D01*
X34681Y-08311D02*
X32993Y-09999D01*
X14131Y-20036D02*
X15392Y-20036D01*
X32048Y-13936D02*
X15671Y-13936D01*
X13938Y-19843D02*
X14131Y-20036D01*
X35691Y-08311D02*
X34681Y-08311D01*
X15392Y-20036D02*
X16461Y-21105D01*
X16461Y-21105D02*
X16461Y-27315D01*
X13938Y-15669D02*
X13938Y-19843D01*
G54D34*
X08461Y-16488D02*
X08461Y-19535D01*
G54D35*
X15906Y-14330D02*
X15906Y-14330D01*
X35691Y-14311D02*
X15906Y-14330D01*
G54D34*
X09461Y-27315D02*
X09461Y-30292D01*
G54D37*
X09461Y-30292D02*
X09461Y-41704D01*
X09461Y-41704D02*
X08646Y-42519D01*
X17020Y-39172D02*
X17020Y-37354D01*
G54D35*
X19461Y-32981D02*
X19461Y-30292D01*
X17145Y-35629D02*
X17145Y-35297D01*
G54D37*
X17020Y-37354D02*
X16870Y-37204D01*
X16870Y-37204D02*
X16870Y-35904D01*
X16870Y-35904D02*
X17145Y-35629D01*
G54D34*
X19461Y-27315D02*
X19461Y-30292D01*
G54D35*
X17145Y-35297D02*
X19461Y-32981D01*
X14016Y-26063D02*
X14961Y-26063D01*
X10001Y-16220D02*
X10395Y-15826D01*
X12442Y-15826D02*
X15371Y-12897D01*
X14961Y-26063D02*
X15434Y-25590D01*
X10395Y-15826D02*
X12442Y-15826D01*
X15371Y-12897D02*
X15371Y-08662D01*
G54D34*
X13461Y-27315D02*
X13461Y-30292D01*
G54D35*
X15434Y-21496D02*
X14682Y-20744D01*
X14682Y-20744D02*
X10902Y-20744D01*
X10001Y-19843D02*
X10001Y-16220D01*
X10902Y-20744D02*
X10001Y-19843D01*
X15434Y-25590D02*
X15434Y-21496D01*
X13461Y-26618D02*
X14016Y-26063D01*
X13461Y-27315D02*
X13461Y-26618D01*
X12461Y-27315D02*
X12461Y-26673D01*
X12678Y-12047D02*
X11237Y-10606D01*
X11237Y-10606D02*
X11237Y-08662D01*
X14489Y-20944D02*
X09921Y-20944D01*
X14803Y-25748D02*
X15197Y-25354D01*
X12048Y-15590D02*
X12678Y-14960D01*
X12678Y-14960D02*
X12678Y-12047D01*
X08977Y-15984D02*
X09371Y-15590D01*
X12461Y-26673D02*
X13386Y-25748D01*
G54D34*
X12461Y-30292D02*
X12461Y-27315D01*
G54D35*
X15197Y-25354D02*
X15197Y-21652D01*
X15197Y-21652D02*
X14489Y-20944D01*
X09371Y-15590D02*
X12048Y-15590D01*
X09921Y-20944D02*
X08977Y-20000D01*
X08977Y-20000D02*
X08977Y-15984D01*
X13386Y-25748D02*
X14803Y-25748D01*
X11103Y-12598D02*
X08571Y-12598D01*
X25138Y-22381D02*
X25119Y-22362D01*
X38084Y-08573D02*
X38959Y-09448D01*
X29331Y-32480D02*
X28741Y-33070D01*
X38084Y-08267D02*
X38084Y-08573D01*
X38084Y-16535D02*
X38084Y-16841D01*
X29331Y-32086D02*
X29331Y-32480D01*
X38084Y-16841D02*
X38959Y-17716D01*
X18032Y-33385D02*
X14961Y-36456D01*
X25985Y-22381D02*
X25138Y-22381D01*
X14961Y-36456D02*
X14961Y-42141D01*
X14961Y-42141D02*
X14583Y-42519D01*
X26319Y-22381D02*
X28347Y-24409D01*
X11162Y-24062D02*
X10434Y-23334D01*
X38084Y-24803D02*
X38084Y-25109D01*
X38084Y-25109D02*
X38959Y-25984D01*
X39353Y-34252D02*
X39353Y-34234D01*
X38478Y-33359D02*
X38478Y-33070D01*
X39353Y-34234D02*
X38478Y-33359D01*
X26378Y-32086D02*
X26378Y-32362D01*
X26378Y-32362D02*
X25985Y-32755D01*
X12008Y-13503D02*
X11103Y-12598D01*
X08571Y-12598D02*
X08268Y-12295D01*
X12008Y-13798D02*
X12008Y-13503D01*
G54D37*
X23152Y-43214D02*
X22457Y-42519D01*
X34262Y-43204D02*
X37601Y-43204D01*
X30138Y-32893D02*
X29331Y-32086D01*
G54D35*
X25985Y-22381D02*
X26319Y-22381D01*
G54D37*
X33200Y-32893D02*
X30138Y-32893D01*
G54D35*
X11162Y-24606D02*
X11162Y-24062D01*
G54D37*
X14083Y-39172D02*
X14083Y-37354D01*
G54D35*
X32087Y-12026D02*
X32087Y-10555D01*
X28347Y-24409D02*
X28347Y-26396D01*
G54D37*
X21958Y-39172D02*
X21958Y-37354D01*
X37601Y-43204D02*
X40691Y-40114D01*
X21958Y-37354D02*
X22108Y-37204D01*
X14083Y-37354D02*
X14233Y-37204D01*
X23514Y-43214D02*
X23152Y-43214D01*
G54D35*
X18032Y-33367D02*
X18032Y-33385D01*
X23466Y-32755D02*
X23318Y-32903D01*
X25985Y-32755D02*
X23466Y-32755D01*
G54D37*
X18020Y-37354D02*
X18170Y-37204D01*
X23318Y-35994D02*
X22108Y-37204D01*
X18020Y-39172D02*
X18020Y-37354D01*
X23318Y-32903D02*
X23318Y-35994D01*
G54D34*
X06461Y-16488D02*
X06461Y-19535D01*
G54D35*
X12600Y-23209D02*
X13762Y-23209D01*
X13762Y-23209D02*
X13978Y-23425D01*
X15434Y-13700D02*
X12914Y-16220D01*
X13151Y-20236D02*
X15197Y-20236D01*
X29544Y-08662D02*
X29544Y-12110D01*
X16064Y-21103D02*
X16064Y-26712D01*
X27796Y-13700D02*
X15434Y-13700D01*
X12914Y-19999D02*
X13151Y-20236D01*
X15197Y-20236D02*
X16064Y-21103D01*
X29544Y-12110D02*
X27796Y-13700D01*
X12914Y-16220D02*
X12914Y-19999D01*
X16064Y-26712D02*
X15461Y-27315D01*
G54D34*
X15461Y-27315D02*
X15461Y-30292D01*
G54D35*
X14882Y-20472D02*
X11733Y-20472D01*
X15749Y-21339D02*
X14882Y-20472D01*
X11223Y-16063D02*
X12677Y-16063D01*
X15985Y-12755D02*
X20710Y-12755D01*
X12677Y-16063D02*
X15985Y-12755D01*
X10945Y-19684D02*
X10945Y-16341D01*
X14461Y-27315D02*
X14461Y-27036D01*
X10945Y-16341D02*
X11223Y-16063D01*
X11733Y-20472D02*
X10945Y-19684D01*
X15749Y-25748D02*
X15749Y-21339D01*
X14461Y-27036D02*
X15749Y-25748D01*
G54D34*
X14461Y-30292D02*
X14461Y-27315D01*
G54D35*
X21473Y-11992D02*
X21473Y-08662D01*
X20710Y-12755D02*
X21473Y-11992D01*
X36813Y-21547D02*
X36509Y-21547D01*
X36221Y-20108D02*
X35691Y-19578D01*
X36221Y-21259D02*
X36221Y-20108D01*
X36509Y-21547D02*
X36221Y-21259D01*
X35691Y-20578D02*
X35691Y-21578D01*
X36813Y-19578D02*
X36691Y-19578D01*
X36691Y-19578D02*
X35691Y-18578D01*
X35691Y-29846D02*
X35691Y-28846D01*
G54D36*
X41461Y-26846D02*
X42914Y-25393D01*
X40691Y-26846D02*
X41461Y-26846D01*
X40691Y-21578D02*
X41460Y-21578D01*
X41460Y-21578D02*
X42914Y-23032D01*
X42429Y-20578D02*
X42914Y-21063D01*
X40691Y-20578D02*
X42429Y-20578D01*
X42431Y-19578D02*
X42914Y-19095D01*
X40691Y-19578D02*
X42431Y-19578D01*
X40691Y-18578D02*
X41462Y-18578D01*
X41462Y-18578D02*
X42914Y-17126D01*
G54D35*
X36813Y-09342D02*
X35722Y-09342D01*
X35722Y-09342D02*
X35691Y-09311D01*
X38209Y-09448D02*
X36919Y-09448D01*
X36919Y-09448D02*
X36813Y-09342D01*
G54D36*
X42430Y-27846D02*
X42914Y-27362D01*
X40691Y-27846D02*
X42430Y-27846D01*
X42430Y-28846D02*
X42914Y-29330D01*
X40691Y-28846D02*
X42430Y-28846D01*
X40691Y-29846D02*
X41461Y-29846D01*
X41461Y-29846D02*
X42914Y-31299D01*
G54D35*
X35723Y-25878D02*
X35691Y-25846D01*
X36813Y-25878D02*
X38103Y-25878D01*
X38103Y-25878D02*
X38209Y-25984D01*
X36813Y-25878D02*
X35723Y-25878D01*
X36813Y-27846D02*
X36691Y-27846D01*
X36691Y-27846D02*
X35691Y-26846D01*
X36221Y-28376D02*
X35691Y-27846D01*
X36588Y-29815D02*
X36221Y-29448D01*
X36221Y-29448D02*
X36221Y-28376D01*
X36813Y-29815D02*
X36588Y-29815D01*
X36300Y-36723D02*
X35691Y-36114D01*
X36813Y-38082D02*
X36745Y-38082D01*
X36300Y-37637D02*
X36300Y-36723D01*
X36745Y-38082D02*
X36300Y-37637D01*
X36813Y-36114D02*
X36691Y-36114D01*
X36691Y-36114D02*
X35691Y-35114D01*
X36813Y-17610D02*
X35723Y-17610D01*
X35723Y-17610D02*
X35691Y-17578D01*
X38209Y-17716D02*
X36919Y-17716D01*
X36919Y-17716D02*
X36813Y-17610D01*
X35691Y-37114D02*
X35691Y-38114D01*
G54D36*
X40691Y-35114D02*
X41461Y-35114D01*
X41461Y-35114D02*
X42914Y-33661D01*
X42430Y-36114D02*
X42914Y-35630D01*
X40691Y-36114D02*
X42430Y-36114D01*
X40691Y-37114D02*
X42430Y-37114D01*
X42430Y-37114D02*
X42914Y-37598D01*
X40691Y-38114D02*
X41461Y-38114D01*
X41461Y-38114D02*
X42914Y-39567D01*
G54D35*
X36782Y-34114D02*
X35691Y-34114D01*
X38603Y-34252D02*
X36920Y-34252D01*
X36920Y-34252D02*
X36782Y-34114D01*
X35691Y-12311D02*
X35691Y-13311D01*
X36813Y-11311D02*
X36691Y-11311D01*
X36691Y-11311D02*
X35691Y-10311D01*
X36813Y-13279D02*
X36587Y-13279D01*
X36221Y-11841D02*
X35691Y-11311D01*
X36221Y-12913D02*
X36221Y-11841D01*
X36587Y-13279D02*
X36221Y-12913D01*
X14371Y-10649D02*
X14765Y-11043D01*
X14371Y-08662D02*
X14371Y-10649D01*
G54D36*
X14871Y-07283D02*
X14871Y-08162D01*
X15356Y-06798D02*
X14871Y-07283D01*
X15356Y-05905D02*
X15356Y-06798D01*
X14871Y-08162D02*
X14371Y-08662D01*
X31422Y-05905D02*
X30044Y-07283D01*
X29044Y-06389D02*
X29044Y-07283D01*
X31497Y-05905D02*
X31422Y-05905D01*
X29044Y-08162D02*
X28544Y-08662D01*
G54D35*
X28544Y-10649D02*
X28938Y-11043D01*
G54D36*
X29923Y-07283D02*
X28544Y-08662D01*
X30044Y-07283D02*
X29044Y-07283D01*
X29528Y-05905D02*
X29044Y-06389D01*
G54D35*
X28544Y-08662D02*
X28544Y-10649D01*
G54D36*
X30044Y-07283D02*
X29923Y-07283D01*
X31497Y-05905D02*
X29528Y-05905D01*
X29044Y-07283D02*
X29044Y-08162D01*
G54D37*
X08461Y-35830D02*
X05709Y-38582D01*
X08461Y-30292D02*
X08461Y-35830D01*
G54D34*
X08461Y-30292D02*
X08461Y-27315D01*
G54D35*
X07461Y-25374D02*
X05985Y-26850D01*
G54D34*
X07461Y-19535D02*
X07461Y-16488D01*
G54D35*
X05985Y-35550D02*
X05709Y-35826D01*
X07461Y-19535D02*
X07461Y-25374D01*
X05985Y-26850D02*
X05985Y-35550D01*
G54D36*
X40691Y-10311D02*
X41461Y-10311D01*
X41461Y-10311D02*
X42914Y-08858D01*
X42430Y-11311D02*
X42914Y-10827D01*
X40691Y-11311D02*
X42430Y-11311D01*
X40691Y-12311D02*
X42430Y-12311D01*
X42430Y-12311D02*
X42914Y-12795D01*
X40691Y-13311D02*
X41461Y-13311D01*
X41461Y-13311D02*
X42914Y-14764D01*
X23351Y-05905D02*
X21973Y-07283D01*
X21973Y-07283D02*
X20973Y-07283D01*
X21852Y-07283D02*
X20473Y-08662D01*
X20973Y-07283D02*
X20973Y-08162D01*
X21458Y-05905D02*
X20973Y-06390D01*
G54D35*
X20473Y-10649D02*
X20867Y-11043D01*
G54D36*
X23427Y-05905D02*
X23351Y-05905D01*
X20973Y-06390D02*
X20973Y-07283D01*
X20973Y-08162D02*
X20473Y-08662D01*
X23427Y-05905D02*
X21458Y-05905D01*
X21973Y-07283D02*
X21852Y-07283D01*
G54D35*
X20473Y-08662D02*
X20473Y-10649D01*
X10237Y-10649D02*
X10631Y-11043D01*
G54D36*
X11222Y-05905D02*
X11222Y-06798D01*
G54D35*
X10237Y-08662D02*
X10237Y-10649D01*
G54D36*
X10737Y-08162D02*
X10237Y-08662D01*
X11222Y-06798D02*
X10737Y-07283D01*
X10737Y-07283D02*
X10737Y-08162D01*
G54D35*
X07953Y-34960D02*
X05709Y-37204D01*
X08347Y-26771D02*
X07953Y-27165D01*
X17461Y-30292D02*
X17425Y-30292D01*
X10945Y-27086D02*
X10630Y-26771D01*
X07953Y-27165D02*
X07953Y-34960D01*
G54D34*
X17461Y-27315D02*
X17461Y-30292D01*
G54D35*
X10945Y-30708D02*
X10945Y-27086D01*
X14725Y-32992D02*
X13229Y-32992D01*
X17425Y-30292D02*
X14725Y-32992D01*
X13229Y-32992D02*
X10945Y-30708D01*
X10630Y-26771D02*
X08347Y-26771D01*
G54D34*
X21461Y-27315D02*
X21461Y-30292D01*
G54D35*
X25985Y-23681D02*
X25985Y-25090D01*
X12462Y-24606D02*
X13797Y-24606D01*
X13797Y-24606D02*
X13978Y-24425D01*
G54D34*
X24461Y-19535D02*
X24461Y-16488D01*
G54D35*
X24461Y-19656D02*
X28741Y-23936D01*
X28741Y-23936D02*
X28741Y-25905D01*
X28977Y-26141D02*
X28977Y-29764D01*
X28977Y-29764D02*
X31299Y-32086D01*
X24461Y-19535D02*
X24461Y-19656D01*
X28741Y-25905D02*
X28977Y-26141D01*
G54D34*
X21461Y-16488D02*
X21461Y-19535D01*
G54D35*
X25434Y-27008D02*
X25434Y-26772D01*
X22205Y-23385D02*
X21461Y-22641D01*
X30315Y-31889D02*
X25434Y-27008D01*
X25434Y-26772D02*
X23859Y-25197D01*
X23859Y-25197D02*
X23859Y-23937D01*
X30315Y-32086D02*
X30315Y-31889D01*
X21461Y-22641D02*
X21461Y-19535D01*
X25493Y-31162D02*
X24961Y-30630D01*
X24961Y-30630D02*
X24961Y-26928D01*
X25493Y-32086D02*
X25493Y-31162D01*
G54D34*
X22461Y-19535D02*
X22461Y-16488D01*
G54D35*
X22600Y-19674D02*
X22461Y-19535D01*
X22600Y-24567D02*
X22600Y-19674D01*
X24961Y-26928D02*
X22600Y-24567D01*
X23461Y-19535D02*
X23461Y-25113D01*
X25197Y-29921D02*
X27362Y-32086D01*
X25197Y-26849D02*
X25197Y-29921D01*
X23461Y-25113D02*
X25197Y-26849D01*
G54D34*
X23461Y-16488D02*
X23461Y-19535D01*
G54D37*
X13083Y-39172D02*
X13083Y-37354D01*
G54D34*
X18461Y-30292D02*
X18461Y-27315D01*
G54D35*
X13208Y-35533D02*
X18449Y-30292D01*
X18449Y-30292D02*
X18461Y-30292D01*
G54D37*
X13083Y-37354D02*
X12933Y-37204D01*
X12933Y-37204D02*
X12933Y-35904D01*
X12933Y-35904D02*
X13208Y-35629D01*
G54D35*
X13208Y-35629D02*
X13208Y-35533D01*
G54D34*
X20461Y-19535D02*
X20461Y-16488D01*
G54D35*
X20709Y-34488D02*
X21024Y-34803D01*
X20709Y-33385D02*
X20709Y-34488D01*
X20709Y-32992D02*
X20945Y-32756D01*
X20461Y-26445D02*
X20945Y-26929D01*
X20945Y-26929D02*
X20945Y-32756D01*
X28741Y-40078D02*
X28777Y-40114D01*
X24330Y-40078D02*
X27875Y-40078D01*
X20461Y-19535D02*
X20461Y-26445D01*
X20709Y-33385D02*
X20709Y-32992D01*
X22756Y-38504D02*
X24330Y-40078D01*
X28777Y-40114D02*
X35691Y-40114D01*
X34016Y-31439D02*
X35691Y-33114D01*
X34016Y-28739D02*
X34016Y-31439D01*
X30001Y-24724D02*
X34016Y-28739D01*
G54D34*
X18461Y-19535D02*
X18461Y-16488D01*
G54D35*
X19922Y-30078D02*
X20001Y-29999D01*
X35691Y-39114D02*
X28760Y-39114D01*
X19922Y-33543D02*
X19922Y-30078D01*
X20001Y-20075D02*
X19461Y-19535D01*
X20001Y-29999D02*
X20001Y-20075D01*
G54D34*
X19461Y-16488D02*
X19461Y-19535D01*
G54D35*
X24253Y-39133D02*
X23150Y-38030D01*
X23150Y-38030D02*
X23150Y-36693D01*
X27953Y-39133D02*
X25119Y-39133D01*
X25119Y-39133D02*
X24253Y-39133D01*
X28760Y-39114D02*
X28741Y-39133D01*
G54D34*
X23461Y-30292D02*
X23461Y-27315D01*
G54D35*
X23461Y-30292D02*
X23461Y-30476D01*
X21024Y-40078D02*
X20457Y-40645D01*
X23461Y-30476D02*
X21497Y-32440D01*
X21497Y-32440D02*
X21497Y-36063D01*
X20457Y-40645D02*
X20457Y-42519D01*
X21497Y-36063D02*
X21182Y-36378D01*
X32205Y-25669D02*
X34410Y-27874D01*
X34410Y-27874D02*
X34410Y-30565D01*
X29607Y-23858D02*
X31418Y-25669D01*
X31418Y-25669D02*
X32205Y-25669D01*
G54D34*
X15461Y-19535D02*
X15461Y-16488D01*
G54D35*
X34410Y-30565D02*
X35691Y-31846D01*
X31697Y-24846D02*
X35691Y-24846D01*
X29607Y-22913D02*
X31697Y-24846D01*
G54D34*
X13461Y-19535D02*
X13461Y-16488D01*
G54D35*
X34646Y-29801D02*
X35691Y-30846D01*
X31576Y-25354D02*
X32442Y-25354D01*
X29134Y-22912D02*
X31576Y-25354D01*
X29134Y-22756D02*
X29134Y-22912D01*
X29528Y-22362D02*
X29134Y-22756D01*
G54D34*
X14461Y-16488D02*
X14461Y-19535D01*
G54D35*
X34646Y-27558D02*
X34646Y-29801D01*
X32442Y-25354D02*
X34646Y-27558D01*
X21182Y-31571D02*
X22461Y-30292D01*
X21103Y-34252D02*
X21182Y-33543D01*
X21182Y-33543D02*
X21182Y-31571D01*
G54D34*
X22461Y-30292D02*
X22461Y-27315D01*
G54D35*
X16520Y-41354D02*
X17166Y-40708D01*
X16520Y-42519D02*
X16520Y-41354D01*
G54D34*
X12461Y-16488D02*
X12461Y-19535D01*
G54D35*
X34081Y-21968D02*
X35691Y-23578D01*
X27402Y-21968D02*
X34081Y-21968D01*
X26457Y-21023D02*
X27402Y-21968D01*
X33623Y-15118D02*
X35083Y-16578D01*
X15906Y-15118D02*
X32520Y-15118D01*
X32520Y-15118D02*
X33623Y-15118D01*
G54D34*
X10461Y-16488D02*
X10461Y-19535D01*
G54D35*
X35083Y-16578D02*
X35691Y-16578D01*
X35691Y-22578D02*
X35650Y-22578D01*
X34489Y-21417D02*
X27402Y-21417D01*
X35650Y-22578D02*
X34489Y-21417D01*
G54D34*
X11461Y-19535D02*
X11461Y-16488D01*
X10461Y-30292D02*
X10461Y-27315D01*
G54D37*
X10461Y-30292D02*
X10461Y-40397D01*
X10461Y-40397D02*
X12583Y-42519D01*
M02*
