G04 (created by PCBNEW-RS274X (2012-01-19 BZR 3256)-stable) date 27/06/2012 6:41:12 PM*
G01*
G70*
G90*
%MOIN*%
G04 Gerber Fmt 3.4, Leading zero omitted, Abs format*
%FSLAX34Y34*%
G04 APERTURE LIST*
%ADD10C,0.006000*%
%ADD11R,0.118400X0.118400*%
%ADD12C,0.118400*%
%ADD13R,0.075000X0.055000*%
%ADD14C,0.090000*%
%ADD15R,0.090000X0.090000*%
%ADD16R,0.075000X0.075000*%
%ADD17C,0.075000*%
%ADD18R,0.080000X0.080000*%
%ADD19C,0.080000*%
%ADD20R,0.100000X0.080000*%
%ADD21R,0.080000X0.100000*%
%ADD22R,0.055000X0.075000*%
%ADD23C,0.079100*%
%ADD24C,0.180000*%
%ADD25R,0.090900X0.138100*%
%ADD26R,0.079100X0.130200*%
%ADD27R,0.047600X0.106600*%
%ADD28R,0.063300X0.106600*%
%ADD29C,0.067200*%
%ADD30C,0.086900*%
%ADD31R,0.063300X0.107000*%
G04 APERTURE END LIST*
G54D10*
G54D11*
X42914Y-25393D03*
G54D12*
X42914Y-27362D03*
X42914Y-29330D03*
X42914Y-31299D03*
G54D11*
X42914Y-33661D03*
G54D12*
X42914Y-35630D03*
X42914Y-37598D03*
X42914Y-39567D03*
G54D11*
X42914Y-17126D03*
G54D12*
X42914Y-19095D03*
X42914Y-21063D03*
X42914Y-23032D03*
G54D11*
X42914Y-08858D03*
G54D12*
X42914Y-10827D03*
X42914Y-12795D03*
X42914Y-14764D03*
G54D11*
X05906Y-14763D03*
G54D12*
X05906Y-12794D03*
X05906Y-10826D03*
X05906Y-08857D03*
G54D11*
X34056Y-05905D03*
G54D12*
X36025Y-05905D03*
X37993Y-05905D03*
X39962Y-05905D03*
G54D11*
X25591Y-05905D03*
G54D12*
X27560Y-05905D03*
X29528Y-05905D03*
X31497Y-05905D03*
G54D11*
X17521Y-05905D03*
G54D12*
X19490Y-05905D03*
X21458Y-05905D03*
X23427Y-05905D03*
G54D11*
X13387Y-05905D03*
G54D12*
X15356Y-05905D03*
G54D11*
X09253Y-05905D03*
G54D12*
X11222Y-05905D03*
G54D13*
X32087Y-12776D03*
X32087Y-12026D03*
X12008Y-14548D03*
X12008Y-13798D03*
X17048Y-33367D03*
X17048Y-32617D03*
X18032Y-33367D03*
X18032Y-32617D03*
X27363Y-27146D03*
X27363Y-26396D03*
X28347Y-27146D03*
X28347Y-26396D03*
X28938Y-11793D03*
X28938Y-11043D03*
X20867Y-11793D03*
X20867Y-11043D03*
X14765Y-11793D03*
X14765Y-11043D03*
G54D14*
X21473Y-08662D03*
X20473Y-08662D03*
G54D15*
X19473Y-08662D03*
G54D14*
X15371Y-08662D03*
X14371Y-08662D03*
G54D15*
X13371Y-08662D03*
G54D14*
X11237Y-08662D03*
X10237Y-08662D03*
G54D15*
X09237Y-08662D03*
G54D14*
X29544Y-08662D03*
X28544Y-08662D03*
G54D15*
X27544Y-08662D03*
G54D14*
X13978Y-22425D03*
X13978Y-23425D03*
G54D15*
X13978Y-24425D03*
G54D16*
X05461Y-19535D03*
G54D17*
X06461Y-19535D03*
X07461Y-19535D03*
X08461Y-19535D03*
X09461Y-19535D03*
X10461Y-19535D03*
X11461Y-19535D03*
X12461Y-19535D03*
X13461Y-19535D03*
X14461Y-19535D03*
X15461Y-19535D03*
X16461Y-19535D03*
X17461Y-19535D03*
X18461Y-19535D03*
X19461Y-19535D03*
X20461Y-19535D03*
X21461Y-19535D03*
X22461Y-19535D03*
X23461Y-19535D03*
X24461Y-19535D03*
X24461Y-16488D03*
X23461Y-16488D03*
X22461Y-16488D03*
X21461Y-16488D03*
X20461Y-16488D03*
X19461Y-16488D03*
X18461Y-16488D03*
X17461Y-16488D03*
X16461Y-16488D03*
X15461Y-16488D03*
X14461Y-16488D03*
X13461Y-16488D03*
X12461Y-16488D03*
X11461Y-16488D03*
X10461Y-16488D03*
X09461Y-16488D03*
X08461Y-16488D03*
X07461Y-16488D03*
X06461Y-16488D03*
G54D16*
X05461Y-16488D03*
X24461Y-27315D03*
G54D17*
X23461Y-27315D03*
X22461Y-27315D03*
X21461Y-27315D03*
X20461Y-27315D03*
X19461Y-27315D03*
X18461Y-27315D03*
X17461Y-27315D03*
X16461Y-27315D03*
X15461Y-27315D03*
X14461Y-27315D03*
X13461Y-27315D03*
X12461Y-27315D03*
X11461Y-27315D03*
X10461Y-27315D03*
X09461Y-27315D03*
X08461Y-27315D03*
X07461Y-27315D03*
X06461Y-27315D03*
X05461Y-27315D03*
X05461Y-30292D03*
X06461Y-30292D03*
X07461Y-30292D03*
X08461Y-30292D03*
X09461Y-30292D03*
X10461Y-30292D03*
X11461Y-30292D03*
X12461Y-30292D03*
X13461Y-30292D03*
X14461Y-30292D03*
X15461Y-30292D03*
X16461Y-30292D03*
X17461Y-30292D03*
X18461Y-30292D03*
X19461Y-30292D03*
X20461Y-30292D03*
X21461Y-30292D03*
X22461Y-30292D03*
X23461Y-30292D03*
G54D16*
X24461Y-30292D03*
G54D18*
X40691Y-15311D03*
G54D19*
X40691Y-14311D03*
X40691Y-13311D03*
X40691Y-12311D03*
X40691Y-11311D03*
X40691Y-10311D03*
G54D18*
X40691Y-09311D03*
G54D19*
X40691Y-08311D03*
X35691Y-08311D03*
X35691Y-09311D03*
X35691Y-10311D03*
X35691Y-11311D03*
X35691Y-12311D03*
X35691Y-13311D03*
X35691Y-14311D03*
X35691Y-15311D03*
G54D18*
X40691Y-31846D03*
G54D19*
X40691Y-30846D03*
X40691Y-29846D03*
X40691Y-28846D03*
X40691Y-27846D03*
X40691Y-26846D03*
G54D18*
X40691Y-25846D03*
G54D19*
X40691Y-24846D03*
X35691Y-24846D03*
X35691Y-25846D03*
X35691Y-26846D03*
X35691Y-27846D03*
X35691Y-28846D03*
X35691Y-29846D03*
X35691Y-30846D03*
X35691Y-31846D03*
G54D18*
X40691Y-23578D03*
G54D19*
X40691Y-22578D03*
X40691Y-21578D03*
X40691Y-20578D03*
X40691Y-19578D03*
X40691Y-18578D03*
G54D18*
X40691Y-17578D03*
G54D19*
X40691Y-16578D03*
X35691Y-16578D03*
X35691Y-17578D03*
X35691Y-18578D03*
X35691Y-19578D03*
X35691Y-20578D03*
X35691Y-21578D03*
X35691Y-22578D03*
X35691Y-23578D03*
G54D18*
X40691Y-40114D03*
G54D19*
X40691Y-39114D03*
X40691Y-38114D03*
X40691Y-37114D03*
X40691Y-36114D03*
X40691Y-35114D03*
G54D18*
X40691Y-34114D03*
G54D19*
X40691Y-33114D03*
X35691Y-33114D03*
X35691Y-34114D03*
X35691Y-35114D03*
X35691Y-36114D03*
X35691Y-37114D03*
X35691Y-38114D03*
X35691Y-39114D03*
X35691Y-40114D03*
G54D20*
X25985Y-23681D03*
X25985Y-22381D03*
G54D21*
X12933Y-37204D03*
X14233Y-37204D03*
X16870Y-37204D03*
X18170Y-37204D03*
X20808Y-37204D03*
X22108Y-37204D03*
X12462Y-24606D03*
X11162Y-24606D03*
G54D22*
X13958Y-35629D03*
X13208Y-35629D03*
G54D13*
X12600Y-22459D03*
X12600Y-23209D03*
G54D22*
X17895Y-35629D03*
X17145Y-35629D03*
X21833Y-35629D03*
X21083Y-35629D03*
X38603Y-34252D03*
X39353Y-34252D03*
X38209Y-17716D03*
X38959Y-17716D03*
X38209Y-25984D03*
X38959Y-25984D03*
X38209Y-09448D03*
X38959Y-09448D03*
G54D18*
X32087Y-07555D03*
G54D19*
X32087Y-08555D03*
X32087Y-09555D03*
X32087Y-10555D03*
G54D18*
X08268Y-14295D03*
G54D19*
X08268Y-13295D03*
X08268Y-12295D03*
X08268Y-11295D03*
G54D18*
X18973Y-07283D03*
G54D19*
X19973Y-07283D03*
X20973Y-07283D03*
X21973Y-07283D03*
G54D18*
X27044Y-07283D03*
G54D19*
X28044Y-07283D03*
X29044Y-07283D03*
X30044Y-07283D03*
G54D18*
X12583Y-42519D03*
G54D19*
X13583Y-42519D03*
X14583Y-42519D03*
G54D18*
X16520Y-42519D03*
G54D19*
X17520Y-42519D03*
X18520Y-42519D03*
G54D18*
X08646Y-42519D03*
G54D19*
X09646Y-42519D03*
X10646Y-42519D03*
G54D18*
X20457Y-42519D03*
G54D19*
X21457Y-42519D03*
X22457Y-42519D03*
G54D18*
X25985Y-26090D03*
G54D19*
X25985Y-25090D03*
G54D18*
X36813Y-27846D03*
G54D19*
X36813Y-28846D03*
G54D18*
X20958Y-39172D03*
G54D19*
X21958Y-39172D03*
G54D18*
X17020Y-39172D03*
G54D19*
X18020Y-39172D03*
G54D18*
X13083Y-39172D03*
G54D19*
X14083Y-39172D03*
G54D18*
X36813Y-13279D03*
G54D19*
X36813Y-14279D03*
G54D18*
X36813Y-29815D03*
G54D19*
X36813Y-30815D03*
G54D18*
X36813Y-11311D03*
G54D19*
X36813Y-12311D03*
G54D18*
X36813Y-09342D03*
G54D19*
X36813Y-10342D03*
G54D18*
X13871Y-07283D03*
G54D19*
X14871Y-07283D03*
G54D18*
X09737Y-07283D03*
G54D19*
X10737Y-07283D03*
G54D18*
X36813Y-34145D03*
G54D19*
X36813Y-35145D03*
G54D18*
X36813Y-17610D03*
G54D19*
X36813Y-18610D03*
G54D18*
X36813Y-36114D03*
G54D19*
X36813Y-37114D03*
G54D18*
X36813Y-19578D03*
G54D19*
X36813Y-20578D03*
G54D18*
X36813Y-38082D03*
G54D19*
X36813Y-39082D03*
G54D18*
X36813Y-21547D03*
G54D19*
X36813Y-22547D03*
G54D18*
X36813Y-25878D03*
G54D19*
X36813Y-26878D03*
G54D18*
X05709Y-37204D03*
X05709Y-38582D03*
X05709Y-35826D03*
G54D23*
X38084Y-24803D03*
X39084Y-24803D03*
X38084Y-16535D03*
X39084Y-16535D03*
X38478Y-33070D03*
X39478Y-33070D03*
X38084Y-08267D03*
X39084Y-08267D03*
X10434Y-23334D03*
X10434Y-22334D03*
G54D24*
X06694Y-06693D03*
X42127Y-06693D03*
X06694Y-42126D03*
X41537Y-42126D03*
G54D13*
X10631Y-11793D03*
X10631Y-11043D03*
G54D20*
X09646Y-12068D03*
X09646Y-10768D03*
X13781Y-12067D03*
X13781Y-10767D03*
X19883Y-12068D03*
X19883Y-10768D03*
X27954Y-12068D03*
X27954Y-10768D03*
X30906Y-13051D03*
X30906Y-11751D03*
X10906Y-14874D03*
X10906Y-13574D03*
G54D25*
X34262Y-43204D03*
X23514Y-43214D03*
G54D26*
X23318Y-32903D03*
G54D27*
X23840Y-32086D03*
X24312Y-32086D03*
G54D28*
X24824Y-32086D03*
X25493Y-32086D03*
X28346Y-32086D03*
X27362Y-32086D03*
X26378Y-32086D03*
X29331Y-32086D03*
X30315Y-32086D03*
X31299Y-32086D03*
G54D29*
X24016Y-33287D03*
G54D30*
X32284Y-33287D03*
G54D31*
X32284Y-32086D03*
G54D25*
X33200Y-32893D03*
M02*
